{"title":"Most dangerous and Safest songs to listen to while driving!! by-","uid":8469594,"size":51034404,"categoryP":"audio","categoryS":"other","magnet":"?xt=urn:btih:c07876c5d874d76c56f0f21a627eff1f5d50251e&amp;dn=Most+dangerous+and+Safest+songs+to+listen+to+while+driving%21%21+by-&amp;tr=udp%3A%2F%2Ftracker.openbittorrent.com%3A80&amp;tr=udp%3A%2F%2Fopen.demonii.com%3A1337&amp;tr=udp%3A%2F%2Ftracker.coppersurfer.tk%3A6969&amp;tr=udp%3A%2F%2Fexodus.desync.com%3A6969","seeders":0,"leechers":1,"uploader":"zinkslane","files":9,"time":1368454471,"description":"Most dangerous and Safest songs to listen to while driving!! by-{zinkslane}\n\nalbum-handpicked\n\ntrack list(total-8mp3 songs)\n..................................................................\n\n01.bruno mars- billoinare -\nAudio\nFormat : MPEG Audio\nFormat version : Version 1\nFormat profile : Layer 3\nMode : Joint stereo\nMode extension : MS Stereo\nDuration : 4mn 3s\nBit rate mode : Constant\nBit rate : 160 Kbps\nChannel(s) : 2 channels\nSampling rate : 48.0 KHz\nCompression mode : Lossy\nStream size : 4.64 MiB (100%)\n\n\n02.coldplay - the scientist-\n\nAudio\nFormat : MPEG Audio\nFormat version : Version 1\nFormat profile : Layer 3\nDuration : 5mn 11s\nBit rate mode : Constant\nBit rate : 192 Kbps\nChannel(s) : 2 channels\nSampling rate : 44.1 KHz\nCompression mode : Lossy\nStream size : 7.12 MiB (100%)\nWriting library : LAME3.87 (beta 1, Ja\n\n\n\n\n03.jason mraz- i am yours-\n\nAudio\nFormat : MPEG Audio\nFormat version : Version 1\nFormat profile : Layer 3\nDuration : 4mn 28s\nBit rate mode : Constant\nBit rate : 320 Kbps\nChannel(s) : 2 channels\nSampling rate : 44.1 KHz\nCompression mode : Lossy\nStream size : 10.2 MiB (100%)\n\n\n\n04.norah jones -come away with me-\nAudio\nFormat : MPEG Audio\nFormat version : Version 1\nFormat profile : Layer 3\nMode : Joint stereo\nMode extension : MS Stereo\nDuration : 3mn 18s\nBit rate mode : Variable\nBit rate : 174 Kbps\nChannel(s) : 2 channels\nSampling rate : 44.1 KHz\nCompression mode : Lossy\nStream size : 4.10 MiB (100%)\nWriting library : LAME3.91\nEncoding settings : -m j -V 1 -q 2 -lowpass 19.6 --vbr-new\n\n\n05.black_eyed_peas_-_hey_mama_(main)-\normat : MPEG Audio\nFormat version : Version 1\nFormat profile : Layer 3\nDuration : 3mn 35s\nBit rate mode : Constant\nBit rate : 192 Kbps\nChannel(s) : 2 channels\nSampling rate : 44.1 KHz\nCompression mode : Lossy\nStream size : 4.92 MiB\nWriting library : LAME3.92\n\n06.fall out boy-death on arrival-\n\nAudio\nFormat : MPEG Audio\nFormat version : Version 1\nFormat profile : Layer 3\nMode : Joint stereo\nDuration : 3mn 15s\nBit rate mode : Constant\nBit rate : 128 Kbps\nChannel(s) : 2 channels\nSampling rate : 44.1 KHz\nCompression mode : Lossy\nStream size : 2.97 MiB (100%)\n\n\n\n07.Guns-n-Roses-Paradise-City-\n\nAudio\nFormat : MPEG Audio\nFormat version : Version 1\nFormat profile : Layer 3\nMode : Joint stereo\nMode extension : MS Stereo\nDuration : 6mn 45s\nBit rate mode : Constant\nBit rate : 128 Kbps\nChannel(s) : 2 channels\nSampling rate : 44.1 KHz\nCompression mode : Lossy\nStream size : 6.17 MiB (100%)\n\n08.nickekback-how you remind me-\n\nAudio\nFormat : MPEG Audio\nFormat version : Version 1\nFormat profile : Layer 3\nMode : Joint stereo\nMode extension : MS Stereo\nDuration : 6mn 45s\nBit rate mode : Constant\nBit rate : 128 Kbps\nChannel(s) : 2 channels\nSampling rate : 44.1 KHz\nCompression mode : Lossy\nStream size : 6.17 MiB (100%)\n\n","torrent":{"xt":"urn:btih:c07876c5d874d76c56f0f21a627eff1f5d50251e","amp;dn":"Most+dangerous+and+Safest+songs+to+listen+to+while+driving%21%21+by-","amp;tr":["udp%3A%2F%2Ftracker.openbittorrent.com%3A80","udp%3A%2F%2Fopen.demonii.com%3A1337","udp%3A%2F%2Ftracker.coppersurfer.tk%3A6969","udp%3A%2F%2Fexodus.desync.com%3A6969"],"infoHash":"c07876c5d874d76c56f0f21a627eff1f5d50251e","infoHashBuffer":{"type":"Buffer","data":[192,120,118,197,216,116,215,108,86,240,242,26,98,126,255,31,93,80,37,30]},"announce":[],"urlList":[]}}